<svg xmlns="http://www.w3.org/2000/svg" width="900" height="520" viewBox="0 0 900 520">
  <rect x="0" y="0" width="900" height="520" fill="white" />
  <text x="450.00" y="32" font-size="22" text-anchor="middle" font-family="Arial, sans-serif">Loss Curve - SPA124,SPA128,SPA131,SPA138,SPA144,SPA146,SPA149,SPA151</text>
  <line x1='80' y1='450.00' x2='870' y2='450.00' stroke='#d9dde3' stroke-width='1' /><line x1='80' y1='372.00' x2='870' y2='372.00' stroke='#d9dde3' stroke-width='1' /><line x1='80' y1='294.00' x2='870' y2='294.00' stroke='#d9dde3' stroke-width='1' /><line x1='80' y1='216.00' x2='870' y2='216.00' stroke='#d9dde3' stroke-width='1' /><line x1='80' y1='138.00' x2='870' y2='138.00' stroke='#d9dde3' stroke-width='1' /><line x1='80' y1='60.00' x2='870' y2='60.00' stroke='#d9dde3' stroke-width='1' />
  <line x1="80" y1="450" x2="870" y2="450" stroke="#222" stroke-width="2" />
  <line x1="80" y1="60" x2="80" y2="450" stroke="#222" stroke-width="2" />
  <text x='68' y='454.00' font-size='12' text-anchor='end'>0.2784</text><text x='68' y='376.00' font-size='12' text-anchor='end'>1.1053</text><text x='68' y='298.00' font-size='12' text-anchor='end'>1.9323</text><text x='68' y='220.00' font-size='12' text-anchor='end'>2.7592</text><text x='68' y='142.00' font-size='12' text-anchor='end'>3.5862</text><text x='68' y='64.00' font-size='12' text-anchor='end'>4.4131</text>
  <text x='80.00' y='478' font-size='12' text-anchor='middle'>1</text><text x='107.24' y='478' font-size='12' text-anchor='middle'>2</text><text x='134.48' y='478' font-size='12' text-anchor='middle'>3</text><text x='161.72' y='478' font-size='12' text-anchor='middle'>4</text><text x='188.97' y='478' font-size='12' text-anchor='middle'>5</text><text x='216.21' y='478' font-size='12' text-anchor='middle'>6</text><text x='243.45' y='478' font-size='12' text-anchor='middle'>7</text><text x='270.69' y='478' font-size='12' text-anchor='middle'>8</text><text x='297.93' y='478' font-size='12' text-anchor='middle'>9</text><text x='325.17' y='478' font-size='12' text-anchor='middle'>10</text><text x='352.41' y='478' font-size='12' text-anchor='middle'>11</text><text x='379.66' y='478' font-size='12' text-anchor='middle'>12</text><text x='406.90' y='478' font-size='12' text-anchor='middle'>13</text><text x='434.14' y='478' font-size='12' text-anchor='middle'>14</text><text x='461.38' y='478' font-size='12' text-anchor='middle'>15</text><text x='488.62' y='478' font-size='12' text-anchor='middle'>16</text><text x='515.86' y='478' font-size='12' text-anchor='middle'>17</text><text x='543.10' y='478' font-size='12' text-anchor='middle'>18</text><text x='570.34' y='478' font-size='12' text-anchor='middle'>19</text><text x='597.59' y='478' font-size='12' text-anchor='middle'>20</text><text x='624.83' y='478' font-size='12' text-anchor='middle'>21</text><text x='652.07' y='478' font-size='12' text-anchor='middle'>22</text><text x='679.31' y='478' font-size='12' text-anchor='middle'>23</text><text x='706.55' y='478' font-size='12' text-anchor='middle'>24</text><text x='733.79' y='478' font-size='12' text-anchor='middle'>25</text><text x='761.03' y='478' font-size='12' text-anchor='middle'>26</text><text x='788.28' y='478' font-size='12' text-anchor='middle'>27</text><text x='815.52' y='478' font-size='12' text-anchor='middle'>28</text><text x='842.76' y='478' font-size='12' text-anchor='middle'>29</text><text x='870.00' y='478' font-size='12' text-anchor='middle'>30</text>
  <text x="450.00" y="502" font-size="14" text-anchor="middle" font-family="Arial, sans-serif">Epoch</text>
  <text x="22" y="260.00" font-size="14" text-anchor="middle" transform="rotate(-90 22 260.00)" font-family="Arial, sans-serif">Loss</text>
  <polyline fill="none" stroke="#1f77b4" stroke-width="3" points="80.00,72.45 107.24,265.69 134.48,306.31 161.72,326.38 188.97,340.80 216.21,353.21 243.45,362.04 270.69,369.66 297.93,377.00 325.17,385.68 352.41,391.32 379.66,397.66 406.90,402.53 434.14,405.62 461.38,409.81 488.62,414.79 515.86,419.66 543.10,422.35 570.34,425.73 597.59,427.71 624.83,432.28 652.07,432.74 679.31,436.55 706.55,439.31 733.79,440.23 761.03,442.16 788.28,445.32 815.52,445.83 842.76,447.63 870.00,450.00" />
  <polyline fill="none" stroke="#d62728" stroke-width="3" points="80.00,140.90 107.24,174.23 134.48,186.48 161.72,186.76 188.97,188.17 216.21,188.95 243.45,192.89 270.69,193.16 297.93,191.71 325.17,183.90 352.41,182.26 379.66,180.30 406.90,174.87 434.14,170.28 461.38,165.46 488.62,160.12 515.86,156.28 543.10,148.62 570.34,143.92 597.59,144.83 624.83,132.21 652.07,127.44 679.31,122.47 706.55,105.96 733.79,105.26 761.03,90.42 788.28,77.02 815.52,86.14 842.76,88.23 870.00,60.00" />
  <rect x="680" y="74" width="16" height="16" fill="#1f77b4" />
  <text x="704" y="87" font-size="13" font-family="Arial, sans-serif">Train Loss</text>
  <rect x="680" y="102" width="16" height="16" fill="#d62728" />
  <text x="704" y="115" font-size="13" font-family="Arial, sans-serif">Test Loss</text>
</svg>
