<svg xmlns="http://www.w3.org/2000/svg" width="900" height="520" viewBox="0 0 900 520">
  <rect x="0" y="0" width="900" height="520" fill="white" />
  <text x="450.00" y="32" font-size="22" text-anchor="middle" font-family="Arial, sans-serif">Loss Curve - SPA121,SPA122,SPA132,SPA137,SPA140,SPA148,SPA152</text>
  <line x1='80' y1='450.00' x2='870' y2='450.00' stroke='#d9dde3' stroke-width='1' /><line x1='80' y1='372.00' x2='870' y2='372.00' stroke='#d9dde3' stroke-width='1' /><line x1='80' y1='294.00' x2='870' y2='294.00' stroke='#d9dde3' stroke-width='1' /><line x1='80' y1='216.00' x2='870' y2='216.00' stroke='#d9dde3' stroke-width='1' /><line x1='80' y1='138.00' x2='870' y2='138.00' stroke='#d9dde3' stroke-width='1' /><line x1='80' y1='60.00' x2='870' y2='60.00' stroke='#d9dde3' stroke-width='1' />
  <line x1="80" y1="450" x2="870" y2="450" stroke="#222" stroke-width="2" />
  <line x1="80" y1="60" x2="80" y2="450" stroke="#222" stroke-width="2" />
  <text x='68' y='454.00' font-size='12' text-anchor='end'>0.2862</text><text x='68' y='376.00' font-size='12' text-anchor='end'>1.1345</text><text x='68' y='298.00' font-size='12' text-anchor='end'>1.9829</text><text x='68' y='220.00' font-size='12' text-anchor='end'>2.8313</text><text x='68' y='142.00' font-size='12' text-anchor='end'>3.6796</text><text x='68' y='64.00' font-size='12' text-anchor='end'>4.5280</text>
  <text x='80.00' y='478' font-size='12' text-anchor='middle'>1</text><text x='107.24' y='478' font-size='12' text-anchor='middle'>2</text><text x='134.48' y='478' font-size='12' text-anchor='middle'>3</text><text x='161.72' y='478' font-size='12' text-anchor='middle'>4</text><text x='188.97' y='478' font-size='12' text-anchor='middle'>5</text><text x='216.21' y='478' font-size='12' text-anchor='middle'>6</text><text x='243.45' y='478' font-size='12' text-anchor='middle'>7</text><text x='270.69' y='478' font-size='12' text-anchor='middle'>8</text><text x='297.93' y='478' font-size='12' text-anchor='middle'>9</text><text x='325.17' y='478' font-size='12' text-anchor='middle'>10</text><text x='352.41' y='478' font-size='12' text-anchor='middle'>11</text><text x='379.66' y='478' font-size='12' text-anchor='middle'>12</text><text x='406.90' y='478' font-size='12' text-anchor='middle'>13</text><text x='434.14' y='478' font-size='12' text-anchor='middle'>14</text><text x='461.38' y='478' font-size='12' text-anchor='middle'>15</text><text x='488.62' y='478' font-size='12' text-anchor='middle'>16</text><text x='515.86' y='478' font-size='12' text-anchor='middle'>17</text><text x='543.10' y='478' font-size='12' text-anchor='middle'>18</text><text x='570.34' y='478' font-size='12' text-anchor='middle'>19</text><text x='597.59' y='478' font-size='12' text-anchor='middle'>20</text><text x='624.83' y='478' font-size='12' text-anchor='middle'>21</text><text x='652.07' y='478' font-size='12' text-anchor='middle'>22</text><text x='679.31' y='478' font-size='12' text-anchor='middle'>23</text><text x='706.55' y='478' font-size='12' text-anchor='middle'>24</text><text x='733.79' y='478' font-size='12' text-anchor='middle'>25</text><text x='761.03' y='478' font-size='12' text-anchor='middle'>26</text><text x='788.28' y='478' font-size='12' text-anchor='middle'>27</text><text x='815.52' y='478' font-size='12' text-anchor='middle'>28</text><text x='842.76' y='478' font-size='12' text-anchor='middle'>29</text><text x='870.00' y='478' font-size='12' text-anchor='middle'>30</text>
  <text x="450.00" y="502" font-size="14" text-anchor="middle" font-family="Arial, sans-serif">Epoch</text>
  <text x="22" y="260.00" font-size="14" text-anchor="middle" transform="rotate(-90 22 260.00)" font-family="Arial, sans-serif">Loss</text>
  <polyline fill="none" stroke="#1f77b4" stroke-width="3" points="80.00,96.46 107.24,283.58 134.48,316.76 161.72,333.31 188.97,348.16 216.21,358.74 243.45,368.04 270.69,375.69 297.93,384.32 325.17,389.50 352.41,394.45 379.66,401.57 406.90,406.29 434.14,411.15 461.38,413.35 488.62,417.38 515.86,422.09 543.10,424.66 570.34,428.19 597.59,429.76 624.83,433.12 652.07,435.10 679.31,437.63 706.55,439.35 733.79,441.38 761.03,443.12 788.28,445.64 815.52,446.24 842.76,447.86 870.00,450.00" />
  <polyline fill="none" stroke="#d62728" stroke-width="3" points="80.00,156.93 107.24,183.26 134.48,201.42 161.72,202.66 188.97,200.96 216.21,202.24 243.45,204.57 270.69,201.88 297.93,198.75 325.17,191.43 352.41,192.70 379.66,187.10 406.90,176.80 434.14,173.49 461.38,172.06 488.62,167.54 515.86,150.37 543.10,151.03 570.34,145.30 597.59,135.48 624.83,134.95 652.07,120.94 679.31,114.22 706.55,113.86 733.79,103.51 761.03,102.82 788.28,92.18 815.52,83.26 842.76,83.91 870.00,60.00" />
  <rect x="680" y="74" width="16" height="16" fill="#1f77b4" />
  <text x="704" y="87" font-size="13" font-family="Arial, sans-serif">Train Loss</text>
  <rect x="680" y="102" width="16" height="16" fill="#d62728" />
  <text x="704" y="115" font-size="13" font-family="Arial, sans-serif">Test Loss</text>
</svg>
