<svg xmlns="http://www.w3.org/2000/svg" width="900" height="520" viewBox="0 0 900 520">
  <rect x="0" y="0" width="900" height="520" fill="white" />
  <text x="450.00" y="32" font-size="22" text-anchor="middle" font-family="Arial, sans-serif">Loss Curve - SPA119,SPA125,SPA135,SPA139,SPA143,SPA153,SPA154</text>
  <line x1='80' y1='450.00' x2='870' y2='450.00' stroke='#d9dde3' stroke-width='1' /><line x1='80' y1='372.00' x2='870' y2='372.00' stroke='#d9dde3' stroke-width='1' /><line x1='80' y1='294.00' x2='870' y2='294.00' stroke='#d9dde3' stroke-width='1' /><line x1='80' y1='216.00' x2='870' y2='216.00' stroke='#d9dde3' stroke-width='1' /><line x1='80' y1='138.00' x2='870' y2='138.00' stroke='#d9dde3' stroke-width='1' /><line x1='80' y1='60.00' x2='870' y2='60.00' stroke='#d9dde3' stroke-width='1' />
  <line x1="80" y1="450" x2="870" y2="450" stroke="#222" stroke-width="2" />
  <line x1="80" y1="60" x2="80" y2="450" stroke="#222" stroke-width="2" />
  <text x='68' y='454.00' font-size='12' text-anchor='end'>0.2937</text><text x='68' y='376.00' font-size='12' text-anchor='end'>1.1503</text><text x='68' y='298.00' font-size='12' text-anchor='end'>2.0070</text><text x='68' y='220.00' font-size='12' text-anchor='end'>2.8637</text><text x='68' y='142.00' font-size='12' text-anchor='end'>3.7204</text><text x='68' y='64.00' font-size='12' text-anchor='end'>4.5770</text>
  <text x='80.00' y='478' font-size='12' text-anchor='middle'>1</text><text x='107.24' y='478' font-size='12' text-anchor='middle'>2</text><text x='134.48' y='478' font-size='12' text-anchor='middle'>3</text><text x='161.72' y='478' font-size='12' text-anchor='middle'>4</text><text x='188.97' y='478' font-size='12' text-anchor='middle'>5</text><text x='216.21' y='478' font-size='12' text-anchor='middle'>6</text><text x='243.45' y='478' font-size='12' text-anchor='middle'>7</text><text x='270.69' y='478' font-size='12' text-anchor='middle'>8</text><text x='297.93' y='478' font-size='12' text-anchor='middle'>9</text><text x='325.17' y='478' font-size='12' text-anchor='middle'>10</text><text x='352.41' y='478' font-size='12' text-anchor='middle'>11</text><text x='379.66' y='478' font-size='12' text-anchor='middle'>12</text><text x='406.90' y='478' font-size='12' text-anchor='middle'>13</text><text x='434.14' y='478' font-size='12' text-anchor='middle'>14</text><text x='461.38' y='478' font-size='12' text-anchor='middle'>15</text><text x='488.62' y='478' font-size='12' text-anchor='middle'>16</text><text x='515.86' y='478' font-size='12' text-anchor='middle'>17</text><text x='543.10' y='478' font-size='12' text-anchor='middle'>18</text><text x='570.34' y='478' font-size='12' text-anchor='middle'>19</text><text x='597.59' y='478' font-size='12' text-anchor='middle'>20</text><text x='624.83' y='478' font-size='12' text-anchor='middle'>21</text><text x='652.07' y='478' font-size='12' text-anchor='middle'>22</text><text x='679.31' y='478' font-size='12' text-anchor='middle'>23</text><text x='706.55' y='478' font-size='12' text-anchor='middle'>24</text><text x='733.79' y='478' font-size='12' text-anchor='middle'>25</text><text x='761.03' y='478' font-size='12' text-anchor='middle'>26</text><text x='788.28' y='478' font-size='12' text-anchor='middle'>27</text><text x='815.52' y='478' font-size='12' text-anchor='middle'>28</text><text x='842.76' y='478' font-size='12' text-anchor='middle'>29</text><text x='870.00' y='478' font-size='12' text-anchor='middle'>30</text>
  <text x="450.00" y="502" font-size="14" text-anchor="middle" font-family="Arial, sans-serif">Epoch</text>
  <text x="22" y="260.00" font-size="14" text-anchor="middle" transform="rotate(-90 22 260.00)" font-family="Arial, sans-serif">Loss</text>
  <polyline fill="none" stroke="#1f77b4" stroke-width="3" points="80.00,95.82 107.24,281.73 134.48,316.46 161.72,333.64 188.97,348.55 216.21,360.79 243.45,366.77 270.69,375.82 297.93,382.13 325.17,389.30 352.41,394.35 379.66,401.10 406.90,406.67 434.14,409.50 461.38,413.60 488.62,417.32 515.86,421.19 543.10,425.13 570.34,429.25 597.59,430.91 624.83,432.81 652.07,436.59 679.31,438.46 706.55,440.61 733.79,444.11 761.03,444.24 788.28,445.54 815.52,447.64 842.76,448.60 870.00,450.00" />
  <polyline fill="none" stroke="#d62728" stroke-width="3" points="80.00,162.63 107.24,189.11 134.48,190.99 161.72,205.17 188.97,204.40 216.21,204.42 243.45,202.57 270.69,199.78 297.93,201.09 325.17,196.40 352.41,192.15 379.66,192.98 406.90,183.22 434.14,175.07 461.38,170.46 488.62,164.24 515.86,160.94 543.10,145.37 570.34,137.63 597.59,135.88 624.83,131.95 652.07,123.02 679.31,114.19 706.55,110.20 733.79,103.47 761.03,86.52 788.28,82.75 815.52,60.00 842.76,68.67 870.00,64.79" />
  <rect x="680" y="74" width="16" height="16" fill="#1f77b4" />
  <text x="704" y="87" font-size="13" font-family="Arial, sans-serif">Train Loss</text>
  <rect x="680" y="102" width="16" height="16" fill="#d62728" />
  <text x="704" y="115" font-size="13" font-family="Arial, sans-serif">Test Loss</text>
</svg>
